<svg width="580" height="400" xmlns="http://www.w3.org/2000/svg">
 <!-- Created with Method Draw - http://github.com/duopixel/Method-Draw/ -->

 <g>
  <title>background</title>
  <rect x="-1" y="-1" width="582" height="402" id="canvas_background" fill="none"/>
  <g id="canvasGrid" display="none">
   <rect id="svg_2" width="100%" height="100%" x="0" y="0" stroke-width="0" fill="url(#gridpattern)"/>
  </g>
 </g>
 <g>
  <title>Layer 1</title>
  <path fill="#46673D" stroke-width="1.5" d="m478.091739,51.984502c-48.770766,-24.737257 -101.372722,-44.553347 -144.522545,-47.254878c-2.349051,-0.175234 -4.781996,-0.277454 -7.354766,-0.30666l-283.983446,0c-4.530312,0 -9.004694,0.919981 -12.192692,2.628516c-3.160032,1.664727 -5.03368,4.001186 -5.03368,6.381453l0,376.023826c0,2.365664 1.761788,4.629109 5.03368,6.352247c3.271892,1.693933 7.578485,2.613913 12.192692,2.613913l513.547218,0c4.530312,0 8.86487,-0.905378 12.136762,-2.613913c3.271892,-1.708535 5.08961,-3.97198 5.08961,-6.352247l0,-250.220127c-1.006736,-29.045103 -44.576033,-60.718721 -94.912833,-87.252131l0,0.000001zm-24.245559,12.7337c22.511735,11.477853 42.758315,24.474405 57.859355,37.003665c-13.087568,-2.70153 -26.818328,-4.702123 -39.710142,-6.293836c-28.384362,-3.329454 -56.153497,-4.672917 -73.407833,-5.213224c0.083895,-1.942181 0.11186,-4.132611 0.11186,-6.512879c0,-12.689891 -1.538069,-30.782844 -9.9555,-46.729175c-0.083895,-0.146029 -0.139824,-0.292057 -0.251684,-0.438086c21.365175,7.359845 44.631963,17.129163 65.353945,28.183533l-0.000001,0.000002zm84.649718,315.699382l-479.094475,0l0,-358.033094l266.840969,0l0,0.029206c11.633394,-0.365072 21.672789,5.636707 29.363133,19.363402c6.991222,13.069566 8.75301,30.111112 8.725045,41.924831c0.05593,8.6595 -0.755052,14.471441 -0.755052,14.471441l-1.37028,9.521069l18.344967,0.10222c0.083895,0 42.394771,0.262852 83.894666,5.184018c39.877931,4.497683 71.058782,13.463843 73.967131,23.612836c0.11186,0.905378 0.139824,1.810756 0.11186,2.657722l0,241.166349l-0.027965,0l0.000001,0z" id="svg_1" stroke="#729C62"/>
 </g>
</svg>