<svg width="580" height="400" xmlns="http://www.w3.org/2000/svg">
 <!-- Created with Method Draw - http://github.com/duopixel/Method-Draw/ -->

 <g>
  <title>background</title>
  <rect x="-1" y="-1" width="582" height="402" id="canvas_background" fill="none"/>
  <g id="canvasGrid" display="none">
   <rect id="svg_1" width="100%" height="100%" x="0" y="0" stroke-width="0" fill="url(#gridpattern)"/>
  </g>
 </g>
 <g>
  <title>Layer 1</title>
  <path fill="#46673D" stroke-width="1.5" stroke-opacity="null" d="m53.924443,121.238407c0.013149,-3.633331 4.49284,-25.910131 9.958479,-49.504247c17.04276,-73.570799 17.29346,-73.895467 38.931885,-50.446825l12.802172,13.873216l37.439864,-13.72135c49.521217,-18.148913 108.611529,-24.862812 162.929308,-18.511978c23.057314,2.695976 47.522811,7.07785 54.367814,9.737472c13.590034,5.280242 12.718896,9.814855 -8.941075,46.541485c-11.87134,20.129222 -13.010846,20.702908 -33.517251,16.875837c-34.902609,-6.513472 -91.734118,-4.461876 -119.172624,4.302154l-25.726251,8.217406l18.057934,13.684108c9.93191,7.526464 15.558224,14.805924 12.503046,16.176729c-3.055295,1.370847 -40.227412,4.042676 -82.604635,5.937168c-63.580205,2.842604 -77.045984,2.290137 -77.028647,-3.161162l-0.000019,-0.000014l0,0.000001zm327.388223,202.849756l-27.542416,-26.484408l25.077537,-17.605472c25.810496,-18.11981 44.425393,-43.559828 52.626334,-71.922142l4.680027,-16.185176l-26.992823,3.133537c-14.846075,1.723675 -27.084186,1.499706 -27.195795,-0.497485c-0.521259,-9.324368 70.064004,-101.241593 76.924969,-100.173041c10.787863,1.680083 120.23696,70.502452 120.23696,75.605513c0,2.277634 -11.502708,5.476614 -25.561367,7.108713l-25.561425,2.96738l-2.522788,31.64597c-3.235732,40.587196 -32.694209,87.430357 -73.70863,117.207151c-16.427093,11.92636 -32.803899,21.684164 -36.392807,21.684164c-3.589005,0 -18.919452,-11.918194 -34.067775,-26.48469l0,-0.000014l-0.000001,0zm-248.62562,74.233821c0,-2.928421 4.327064,-11.399223 9.615679,-18.824171c9.595238,-13.471164 9.539695,-13.536565 -26.232015,-30.780127c-55.96747,-26.978711 -97.568157,-74.864276 -110.653396,-127.370821l-4.289887,-17.21391l30.587006,-3.043623c63.051576,-6.274311 63.627351,-6.084654 76.255,25.114462c8.521147,21.053173 19.001371,33.669913 41.592929,50.07154c16.61075,12.059627 32.522266,20.885045 35.358977,19.612251c2.836594,-1.272766 6.942359,-8.793401 9.123956,-16.712609c2.181578,-7.919208 6.73064,-14.398635 10.108992,-14.398635c7.756286,0 80.79708,83.611678 81.956658,93.817842c0.774403,6.816598 -38.7095,18.618999 -141.610605,42.33009c-6.56147,1.511885 -11.813276,0.355222 -11.813276,-2.602302l-0.000019,0.000014l0.000001,-0.000001z" id="svg_4" stroke="#000"/>
 </g>
</svg>